<?xml version="1.0" encoding="utf-8"?>
<!-- Generator: Adobe Illustrator 23.1.0, SVG Export Plug-In . SVG Version: 6.00 Build 0)  -->
<svg version="1.1" id="Layer_1" xmlns="http://www.w3.org/2000/svg" xmlns:xlink="http://www.w3.org/1999/xlink" x="0px" y="0px"
	 viewBox="0 0 300.5 116.1" style="enable-background:new 0 0 300.5 116.1;" xml:space="preserve">
<style type="text/css">
	.st0{fill:url(#SVGID_1_);}
	.st1{fill:url(#SVGID_2_);}
	.st2{fill:url(#SVGID_3_);}
	.st3{fill:url(#SVGID_4_);}
	.st4{fill:url(#SVGID_5_);}
	.st5{fill:url(#SVGID_6_);}
	.st6{fill:url(#SVGID_7_);}
	.st7{fill:url(#SVGID_8_);}
	.st8{fill:url(#SVGID_9_);}
	.st9{fill:url(#SVGID_10_);}
	.st10{fill:url(#SVGID_11_);}
	.st11{fill:url(#SVGID_12_);}
	.st12{fill:url(#SVGID_13_);}
	.st13{opacity:0.23;}
	.st14{fill:#FFFFFF;}
</style>
<g>
	<g>
		
			<linearGradient id="SVGID_1_" gradientUnits="userSpaceOnUse" x1="16.3371" y1="33.329" x2="15.6171" y2="4.169" gradientTransform="matrix(1 0 0 -1 0 59)">
			<stop  offset="0.2095" style="stop-color:#5D5DA9"/>
			<stop  offset="0.7877" style="stop-color:#27272F"/>
		</linearGradient>
		<polygon class="st0" points="19.8,43.5 5.6,29.3 24.9,17.5 27.1,21 12.3,30.1 22.7,40.5 		"/>
	</g>
</g>
<g>
	<g>
		
			<linearGradient id="SVGID_2_" gradientUnits="userSpaceOnUse" x1="272.2428" y1="27.0103" x2="271.5228" y2="-2.1497" gradientTransform="matrix(1 0 0 -1 0 59)">
			<stop  offset="0.2095" style="stop-color:#5D5DA9"/>
			<stop  offset="0.7877" style="stop-color:#27272F"/>
		</linearGradient>
		<polygon class="st1" points="263.6,43.5 261.4,39.9 276.2,30.8 265.8,20.4 268.7,17.5 282.9,31.6 		"/>
	</g>
</g>
<g>
	<g>
		
			<linearGradient id="SVGID_3_" gradientUnits="userSpaceOnUse" x1="253.8881" y1="41.1019" x2="256.0481" y2="16.6219" gradientTransform="matrix(1 0 0 -1 0 59)">
			<stop  offset="0.2095" style="stop-color:#5D5DA9"/>
			<stop  offset="0.7877" style="stop-color:#27272F"/>
		</linearGradient>
		<polygon class="st2" points="244.1,46.6 262.1,12.5 265.9,14.4 247.8,48.6 		"/>
	</g>
</g>
<g>
	<g>
		
			<linearGradient id="SVGID_4_" gradientUnits="userSpaceOnUse" x1="242.7454" y1="40.1187" x2="244.9054" y2="15.6387" gradientTransform="matrix(1 0 0 -1 0 59)">
			<stop  offset="0.2095" style="stop-color:#5D5DA9"/>
			<stop  offset="0.7877" style="stop-color:#27272F"/>
		</linearGradient>
		<polygon class="st3" points="235.6,46.6 248.9,21 252.7,23 239.3,48.6 		"/>
	</g>
</g>
<g>
	<g>
		
			<linearGradient id="SVGID_5_" gradientUnits="userSpaceOnUse" x1="232.1908" y1="39.1874" x2="234.3508" y2="14.7074" gradientTransform="matrix(1 0 0 -1 0 59)">
			<stop  offset="0.2095" style="stop-color:#5D5DA9"/>
			<stop  offset="0.7877" style="stop-color:#27272F"/>
		</linearGradient>
		<polygon class="st4" points="227,46.6 236.9,27.6 240.6,29.5 230.8,48.6 		"/>
	</g>
</g>
<g>
	<g>
		
			<linearGradient id="SVGID_6_" gradientUnits="userSpaceOnUse" x1="222.7321" y1="38.3528" x2="224.8921" y2="13.8728" gradientTransform="matrix(1 0 0 -1 0 59)">
			<stop  offset="0.2095" style="stop-color:#5D5DA9"/>
			<stop  offset="0.7877" style="stop-color:#27272F"/>
		</linearGradient>
		<polygon class="st5" points="218.4,46.6 226.6,30.5 230.4,32.5 222.1,48.6 		"/>
	</g>
</g>
<g>
	
		<linearGradient id="SVGID_7_" gradientUnits="userSpaceOnUse" x1="41.9318" y1="45.9369" x2="46.2518" y2="27.5769" gradientTransform="matrix(1 0 0 -1 0 59)">
		<stop  offset="0" style="stop-color:#27272F"/>
		<stop  offset="0.7235" style="stop-color:#5A0293"/>
	</linearGradient>
	<path class="st6" d="M48.5,48.6c-1.6,0-2.5-0.3-2.9-2h-0.1c-0.3,1.7-1.3,2-2.9,2h-3.5c-1.6,0-2.1-0.3-2.9-1.7L34.7,44
		c-0.6-1-0.7-1.1-0.7-2.4V14.5c0-1.5,0.7-2.3,2.3-2.3s2.3,0.8,2.3,2.3v27.1l1.3,2.2h2l1.3-2.2V26.9c0-1.4,0.7-2.8,2.3-2.8
		s2.3,1.3,2.3,2.8v14.7l1.3,2.2h2l1.3-2.2V14.5c0-1.5,0.7-2.3,2.3-2.3S57,13,57,14.5v27.1c0,1.3,0,1.4-0.7,2.4l-1.6,2.9
		c-0.8,1.4-1.2,1.7-2.9,1.7C51.8,48.6,48.5,48.6,48.5,48.6z"/>
	
		<linearGradient id="SVGID_8_" gradientUnits="userSpaceOnUse" x1="67.8588" y1="52.0374" x2="72.1788" y2="33.6774" gradientTransform="matrix(1 0 0 -1 0 59)">
		<stop  offset="0" style="stop-color:#27272F"/>
		<stop  offset="0.7235" style="stop-color:#5A0293"/>
	</linearGradient>
	<path class="st7" d="M64.4,16.9c-1.2,0-2.3-0.7-2.3-2.3s1.1-2.3,2.3-2.3h16.1c2.7,0,4.7,2,4.7,4.7v9c0,1.9-0.4,3.2-1.8,4.5
		c1.4,1.3,1.8,2.7,1.8,4.5v9c0,2.7-2,4.7-4.7,4.7H64.4c-1.2,0-2.3-0.7-2.3-2.3c0-1.7,1.1-2.3,2.3-2.3h16.1v-7.8c0-2.6-1-3.4-2.3-3.4
		H69c-1.2,0-2.3-0.7-2.3-2.3c0-1.7,1.1-2.3,2.3-2.3h9.2c1.3,0,2.3-0.8,2.3-3.4v-7.8H64.4V16.9z"/>
</g>
<g>
	
		<linearGradient id="SVGID_9_" gradientUnits="userSpaceOnUse" x1="100.3585" y1="52.2456" x2="99.2785" y2="-25.5144" gradientTransform="matrix(1 0 0 -1 0 59)">
		<stop  offset="0" style="stop-color:#27272F"/>
		<stop  offset="0.3603" style="stop-color:#8383B2"/>
	</linearGradient>
	<path class="st8" d="M109.3,43.7c1.2,0,2.4,0.7,2.4,2.4s-1.1,2.4-2.4,2.4H88.4V11.8h20.9c1.2,0,2.4,0.7,2.4,2.4s-1.1,2.4-2.4,2.4
		H93.1v11.3h6.9c1.2,0,2.4,0.7,2.4,2.4s-1.1,2.4-2.4,2.4h-6.9V44h16.2V43.7z"/>
	
		<linearGradient id="SVGID_10_" gradientUnits="userSpaceOnUse" x1="125.9978" y1="51.8894" x2="124.9178" y2="-25.8706" gradientTransform="matrix(1 0 0 -1 0 59)">
		<stop  offset="0" style="stop-color:#27272F"/>
		<stop  offset="0.3603" style="stop-color:#8383B2"/>
	</linearGradient>
	<path class="st9" d="M123,14.2c0.4-1.3,0.9-2.4,2.4-2.4c1.6,0,2.1,1.2,2.5,2.4l9.1,31.9c0.3,1.1-0.9,2.4-2.3,2.4
		c-1.5,0-2.2-1.2-2.5-2.4l-1.7-5.7h-10l-1.8,5.7c-0.3,1.1-1.1,2.4-2.5,2.4c-1.3,0-2.6-1.2-2.3-2.4L123,14.2z M125.5,23L125.5,23
		l-3.8,12.8h7.4L125.5,23z"/>
	
		<linearGradient id="SVGID_11_" gradientUnits="userSpaceOnUse" x1="151.15" y1="51.5402" x2="150.07" y2="-26.2198" gradientTransform="matrix(1 0 0 -1 0 59)">
		<stop  offset="0" style="stop-color:#27272F"/>
		<stop  offset="0.3603" style="stop-color:#8383B2"/>
	</linearGradient>
	<path class="st10" d="M144,46.1c0,1.5-0.7,2.4-2.4,2.4s-2.4-0.8-2.4-2.4V11.8H155c3.7,0,7.4,2.6,7.4,6.8v3.3c0,4.4-3.7,6.7-7.4,6.7
		h-4.3l10.6,15.2c0.5,0.7,1.2,1.6,1.2,2.5c0,1.3-1.1,2.2-2.4,2.2c-0.9,0-1.6-0.6-2.1-1.3l-13-18.6h-1V46.1z M144,23.8h10.5
		c1.3,0,3.4-0.1,3.4-2v-3.3c0-1.9-1.9-2.1-3.3-2.1H144V23.8z"/>
	
		<linearGradient id="SVGID_12_" gradientUnits="userSpaceOnUse" x1="176.4001" y1="51.1894" x2="175.3201" y2="-26.5706" gradientTransform="matrix(1 0 0 -1 0 59)">
		<stop  offset="0" style="stop-color:#27272F"/>
		<stop  offset="0.3603" style="stop-color:#8383B2"/>
	</linearGradient>
	<path class="st11" d="M169.4,16.5v1.7c0,1.5-0.7,2.4-2.4,2.4s-2.4-0.8-2.4-2.4v-6.4H188v6.4c0,1.5-0.7,2.4-2.4,2.4
		s-2.4-0.8-2.4-2.4v-1.7h-4.6v29.6c0,1.5-0.7,2.4-2.4,2.4s-2.4-0.8-2.4-2.4V16.5H169.4z"/>
	
		<linearGradient id="SVGID_13_" gradientUnits="userSpaceOnUse" x1="202.1546" y1="50.8318" x2="201.0746" y2="-26.9282" gradientTransform="matrix(1 0 0 -1 0 59)">
		<stop  offset="0" style="stop-color:#27272F"/>
		<stop  offset="0.3603" style="stop-color:#8383B2"/>
	</linearGradient>
	<path class="st12" d="M194.9,32.5v13.6c0,1.5-0.7,2.4-2.4,2.4s-2.4-0.8-2.4-2.4v-32c0-1.5,0.7-2.4,2.4-2.4s2.4,0.8,2.4,2.4v13.6
		h13.9V14.1c0-1.5,0.7-2.4,2.4-2.4s2.4,0.8,2.4,2.4v32c0,1.5-0.7,2.4-2.4,2.4s-2.4-0.8-2.4-2.4V32.5H194.9z"/>
</g>
<rect x="59" y="63.3" width="54.9" height="11.6"/>
<rect x="59" y="78.6" width="54.9" height="11.6"/>
<rect x="59" y="93.9" width="54.9" height="11.6"/>
<rect x="33.9" y="72.8" transform="matrix(-0.2573 0.9663 -0.9663 -0.2573 153.028 39.5885)" width="54.9" height="11.6"/>
<rect x="86.4" y="72.8" transform="matrix(-0.2573 0.9663 -0.9663 -0.2573 219.1058 -11.1984)" width="54.9" height="11.6"/>
<rect x="105.7" y="78.6" transform="matrix(0.5014 0.8652 -0.8652 0.5014 139.414 -73.1169)" width="54.9" height="11.6"/>
<rect x="29.2" y="83.4" transform="matrix(-1.836970e-16 1 -1 -1.836970e-16 135.1932 43.2374)" width="33.6" height="11.6"/>
<rect x="3.2" y="72.8" transform="matrix(0.2944 0.9557 -0.9557 0.2944 96.7506 26.1663)" width="54.9" height="11.6"/>
<g class="st13">
	<g>
		<path class="st14" d="M69.5,106.7l-0.2-9.1c4.5-0.1,9.1-0.2,12.8-1.6c3.5-1.4,4.9-3.1,4.1-5.1c-0.9-2.4-4.9-5.3-10.2-4.5
			c0,0,0,0,0,0l-1.9-9c0,0,0,0,0,0c3.3-0.5,6.2-2,6.5-3.3c0.3-1.3-0.1-1.6-0.4-1.8c-1.1-0.9-3.9-1.3-6.1-0.6L70.5,63
			c5.7-1.8,12.6-0.9,16.8,2.3c3.5,2.7,4.9,6.6,3.7,10.8c-0.4,1.4-1.1,2.7-2,3.8c3.6,2.1,6.2,5,7.3,8.1c1.8,4.9,0.3,12.1-9.7,16.2
			C80.8,106.5,74.5,106.6,69.5,106.7z"/>
	</g>
</g>
</svg>
