<?xml version="1.0" encoding="utf-8"?>
<!-- Generator: Adobe Illustrator 23.1.0, SVG Export Plug-In . SVG Version: 6.00 Build 0)  -->
<svg version="1.1" id="Layer_1" xmlns="http://www.w3.org/2000/svg" xmlns:xlink="http://www.w3.org/1999/xlink" x="0px" y="0px"
	 viewBox="0 0 300.5 57.1" style="enable-background:new 0 0 300.5 57.1;" xml:space="preserve">
<style type="text/css">
	.st0{fill:#300449;}
	.st1{fill:#27272F;}
	.st2{fill:none;}
</style>
<path class="st0" d="M93,28.2c-1.1-1.4-2.6-2.5-4.4-3.2c3.2-1.9,4.8-4.4,4.8-7.6c0-1.6-0.5-3.2-1.4-4.7s-2.2-2.7-3.9-3.6
	c-1.7-0.9-3.5-1.3-5.4-1.3c-2.7,0-4.9,0.8-6.9,2.5c-1.8,1.5-3,3.7-3.8,6.4L63.8,36l-9.9-22.4h-0.7L43.3,36l-9.5-22.4h-4.1l13.2,30.9
	h0.7l9.9-22.1l9.9,22.1h0.7l13.1-30.1c0.4-0.6,0.9-1.1,1.4-1.5c1.2-0.9,2.5-1.3,4.1-1.3c2,0,3.6,0.6,4.9,1.8s1.9,2.6,1.9,4.2
	c0,1.1-0.3,2.1-0.9,3s-1.6,1.7-3,2.3s-2.9,0.9-4.6,0.9V27c2.9,0.2,5,0.5,6.4,1.2c1.4,0.6,2.5,1.6,3.3,2.8c0.8,1.3,1.2,2.6,1.2,4
	c0,2.2-0.8,4-2.4,5.7c-1.6,1.6-3.8,2.4-6.5,2.4c-2.4,0-4.3-0.7-5.8-2c-1.2-1.1-2.1-2.8-2.7-5.2h-3.6c0.7,3.6,2.1,6.3,4.2,8.1
	s4.8,2.8,8,2.8c2.4,0,4.5-0.5,6.4-1.6c1.9-1,3.4-2.5,4.5-4.4s1.7-3.9,1.7-6C95.4,32.3,94.6,30.1,93,28.2z"/>
<g>
	<g>
		<polygon class="st1" points="19.8,43.5 5.6,29.3 24.9,17.5 27.1,21 12.3,30.1 22.7,40.5 		"/>
	</g>
</g>
<g>
	<g>
		<polygon class="st1" points="276.6,43.5 274.4,39.9 289.2,30.8 278.8,20.4 281.7,17.5 295.9,31.6 		"/>
	</g>
</g>
<g>
	<g>
		
			<rect x="248.6" y="28.4" transform="matrix(0.4668 -0.8844 0.8844 0.4668 115.9193 253.2175)" class="st1" width="38.6" height="4.2"/>
	</g>
</g>
<polygon class="st2" points="206.1,100.8 189.4,100.8 189.4,100.8 "/>
<g>
	<path class="st1" d="M125.7,29.3h-14.5v13.4h16.2v4h-21V9.5h20.1v4h-15.3v11.8h14.5V29.3z"/>
	<path class="st1" d="M139.6,35.1l-3.9,11.7h-5l12.7-37.3h5.8L162,46.8h-5.1l-4-11.7H139.6z M151.9,31.3l-3.7-10.7
		c-0.8-2.4-1.4-4.6-1.9-6.8h-0.1c-0.6,2.2-1.2,4.5-1.9,6.7l-3.7,10.8H151.9z"/>
	<path class="st1" d="M167.5,10c2.4-0.5,5.9-0.8,9.2-0.8c5.1,0,8.5,0.9,10.8,3c1.9,1.7,2.9,4.2,2.9,7.1c0,4.9-3.1,8.2-7,9.5V29
		c2.9,1,4.6,3.7,5.5,7.5c1.2,5.2,2.1,8.8,2.9,10.2h-5c-0.6-1.1-1.4-4.3-2.5-8.9c-1.1-5.1-3.1-7.1-7.5-7.2h-4.5v16.2h-4.8V10z
		 M172.3,27h4.9c5.1,0,8.4-2.8,8.4-7.1c0-4.8-3.5-6.9-8.6-7c-2.3,0-4,0.2-4.8,0.4V27z"/>
	<path class="st1" d="M204.8,13.6h-11.3V9.5h27.6v4.1h-11.4v33.2h-4.9V13.6z"/>
	<path class="st1" d="M230,9.5v15.6h18V9.5h4.9v37.3h-4.9V29.3h-18v17.5h-4.8V9.5H230z"/>
</g>
</svg>
